<svg width="250" height="14" viewBox="0 0 250 14" fill="none" xmlns="http://www.w3.org/2000/svg">
<path fill-rule="evenodd" clip-rule="evenodd" d="M32 6.53333C32 8.67111 30.5611 9.82222 27.8889 9.82222H3.77778V13.3333H0V0H27.8889C30.5611 0 32 1.15111 32 3.28889V6.53333ZM28.2222 6.35556V3.46667C28.2222 3.12 27.9889 2.93333 27.5556 2.93333H3.77778V6.88889H27.5556C27.9889 6.88889 28.2222 6.70222 28.2222 6.35556ZM40.8889 13.3333C38.2167 13.3333 36.7778 12.1822 36.7778 10.0444V3.28889C36.7778 1.15111 38.2167 0 40.8889 0H64.0556C66.7278 0 68.1667 1.15111 68.1667 3.28889V10.0444C68.1667 12.1822 66.7278 13.3333 64.0556 13.3333H40.8889ZM64.3889 9.86667C64.3889 10.2133 64.1556 10.4 63.7222 10.4H41.2222C40.7889 10.4 40.5556 10.2133 40.5556 9.86667V3.46667C40.5556 3.12 40.7889 2.93333 41.2222 2.93333H63.7222C64.1556 2.93333 64.3889 3.12 64.3889 3.46667V9.86667ZM101.222 8.8C103.436 9.54476 104.992 11.2933 105 13.3333H101.222C101.222 10.9333 99.8333 9.82222 96.8333 9.82222H76.7778V13.3333H73V0H100.889C103.561 0 105 1.15111 105 3.28889V5.51733C105 7.56444 103.681 8.70667 101.222 8.8ZM101.222 6.35556C101.222 6.70222 100.989 6.88889 100.556 6.88889H76.7778V2.93333H100.556C100.989 2.93333 101.222 3.12 101.222 3.46667V6.35556ZM109.556 3.28889C109.556 1.15111 110.994 0 113.667 0H141V2.48889H114C113.567 2.48889 113.333 2.67556 113.333 3.02222V4.88889C113.333 5.23556 113.567 5.42222 114 5.42222H137.444C140.117 5.42222 141.556 6.57333 141.556 8.71111V10.0444C141.556 12.1822 140.117 13.3333 137.444 13.3333H110.111V10.8444H137.111C137.544 10.8444 137.778 10.6578 137.778 10.3111V8.44444C137.778 8.09778 137.544 7.91111 137.111 7.91111H113.667C110.994 7.91111 109.556 6.76 109.556 4.62222V3.28889ZM150.389 0C147.717 0 146.278 1.15111 146.278 3.28889V10.0444C146.278 12.1822 147.717 13.3333 150.389 13.3333H177.056V10.4H150.722C150.289 10.4 150.056 10.2133 150.056 9.86667V3.46667C150.056 3.12 150.289 2.93333 150.722 2.93333H177.056V0H150.389ZM212.056 0V13.3333H208.278V8.13333H185.667V13.3333H181.889V0H185.667V5.2H208.278V0H212.056ZM220.722 5.42222V2.48889H250V0H216.944V13.3333H250V10.8444H220.722V7.91111H250V5.42222H220.722Z" fill="black"/>
</svg>
